<svg xmlns="http://www.w3.org/2000/svg" viewBox="0 0 80 80" width="200" height="200" fill="none">
  <!-- Orbital arcs -->
  <path d="M40 12 A28 28 0 0 1 66 32" stroke="#ffe066" stroke-width="3.5" stroke-linecap="round" fill="none"/>
  <path d="M40 68 A28 28 0 0 1 14 48" stroke="#ffe066" stroke-width="3.5" stroke-linecap="round" fill="none"/>

  <!-- Sync arrows -->
  <path d="M66 46 L60 40 M66 46 L60 52" stroke="#00dcc6" stroke-width="3" stroke-linecap="round" stroke-linejoin="round"/>
  <path d="M14 34 L20 40 M14 34 L20 28" stroke="#4a9eff" stroke-width="3" stroke-linecap="round" stroke-linejoin="round"/>

  <!-- Buoy body -->
  <ellipse cx="40" cy="44" rx="10" ry="5.5" fill="#ff6b35"/>
  <rect x="37.5" y="28" width="5" height="16" rx="2.5" fill="#ff6b35"/>

  <!-- Beacon light -->
  <circle cx="40" cy="27" r="3.5" fill="#ffe066"/>
  <circle cx="40" cy="27" r="6" fill="#ffe066" opacity="0.2"/>

  <!-- Wave accent -->
  <path d="M26 46 Q33 42 40 46 Q47 50 54 46" stroke="#4a9eff" stroke-width="1.5" stroke-linecap="round" fill="none" opacity="0.5"/>
</svg>
